<svg width="75" height="80" viewBox="0 0 75 80" fill="none" xmlns="http://www.w3.org/2000/svg">
<path d="M63.3671 29.9883C63.3485 29.9648 63.3323 29.9404 63.3119 29.9194C63.2376 29.7929 63.1561 29.6696 63.0686 29.5519C59.3445 24.4362 48.5379 25.7538 48.0595 25.8151C33.0198 28.0328 22.3768 35.3126 18.8519 41.1386C17.7433 42.9704 17.3929 44.6122 17.8381 45.8854C17.8786 46.0015 17.9525 46.101 18.0021 46.2127C18.0041 46.3296 18.0138 46.4477 18.0592 46.5633C18.1656 46.8342 20.6699 53.2603 22.3699 56.5999C23.0882 58.0111 24.4917 59.0654 26.5414 59.7283C26.8304 59.8219 27.1288 59.8683 27.4226 59.9395C27.4426 59.9534 27.4632 59.9666 27.4841 59.9792C19.768 62.4527 13.7353 63.0251 9.64212 62.9324C9.27763 62.9235 8.93211 63.1017 8.72827 63.4044C8.52443 63.7071 8.4874 64.0923 8.63159 64.4283L13.0649 74.7573C13.2364 75.157 13.6301 75.413 14.0636 75.4065C22.0834 75.3126 30.1527 72.9804 36.8931 70.2699C36.9108 70.2634 36.9291 70.2661 36.9466 70.2586C36.9615 70.2522 36.9705 70.2389 36.985 70.232C37.6406 69.9676 38.2995 69.7038 38.9281 69.434C47.1767 65.8936 52.9936 62.0395 53.4201 61.751C56.4988 59.7855 58.9187 57.8753 60.8597 56.0666C60.964 55.9949 61.0516 55.9128 61.1227 55.813C68.5378 48.7708 68.3561 43.4089 68.3407 43.2106C68.5628 37.4166 63.5785 30.2882 63.3671 29.9883ZM20.6876 42.2499C23.9617 36.8396 34.017 30.0543 48.3533 27.9418C51.1214 27.5878 58.8568 27.413 61.335 30.8149C61.9898 31.7159 62.1133 33.0602 61.6923 34.7037C61.5858 35.1181 61.4292 35.5612 61.2489 36.0169C56.5887 35.102 50.7525 35.7196 46.6852 36.8077L46.4519 36.2869C46.4503 36.2829 46.4506 36.2786 46.4492 36.2747C45.6951 34.2387 43.0076 33.3918 39.2555 34.0112C31.1617 35.3407 27.1399 39.9357 27.3517 42.7348C27.4061 43.4629 27.744 44.0606 28.3285 44.4627C29.9141 45.5558 32.9359 44.7365 33.5714 44.5464C36.5473 43.5172 38.2547 42.4593 39.225 41.5439L39.7334 42.7284C39.3817 42.9621 39.0063 43.2002 38.6059 43.4434C31.7708 47.5861 25.3856 48.2393 22.0822 47.0536C21.2677 46.7602 20.2205 46.1974 19.8643 45.1782C19.6469 44.5556 19.9543 43.4614 20.6876 42.2499ZM39.1036 38.0954C39.0446 38.1107 38.99 38.1299 38.9347 38.1536C38.5181 38.3324 38.2588 38.7217 38.3166 39.1916C38.3159 39.2062 38.0161 40.7436 32.9152 42.5022C31.707 42.8596 30.0262 43.0265 29.4926 42.5739C29.3717 40.9733 32.8263 37.2493 39.6051 36.1277C42.5189 35.6484 44.153 36.2531 44.4359 37.0185C44.6689 37.6543 44.2192 39.2444 41.5134 41.431L40.374 38.7763C40.1631 38.285 39.6194 37.9552 39.1036 38.0954ZM47.5733 38.7888C51.2077 37.8605 56.1924 37.3343 60.2884 38.0156C58.6353 40.9198 55.6598 44.3558 51.136 47.8664C51.1942 47.2893 51.1166 46.7001 50.8742 46.1533L47.5733 38.7888ZM24.2818 55.6266C23.3969 53.8871 22.2572 51.2078 21.3839 49.0813C25.9287 50.6986 33.2857 49.1707 39.7186 45.2783C40.4122 44.8581 41.0578 44.4355 41.6518 44.0123C41.6787 43.995 41.7025 43.9777 41.7284 43.9581C43.5983 42.6193 44.9528 41.2817 45.764 40.006L48.9125 47.0299C49.0778 47.3952 49.0519 47.8199 48.8453 48.1624C48.4764 48.7696 47.8868 49.6301 46.7896 50.6745L45.4656 47.5897C45.2321 47.0456 44.5993 46.7939 44.0551 47.0274C43.511 47.261 43.2575 47.8931 43.4911 48.4372L45.0339 52.0318C44.2319 52.5155 43.3974 52.9966 42.531 53.4753L41.029 49.9759C40.7955 49.4317 40.1639 49.1795 39.6197 49.4131C39.0756 49.6466 38.8233 50.2782 39.0569 50.8224L40.6321 54.4924C39.803 54.9223 38.9406 55.3472 38.0563 55.7695L36.5243 52.2002C36.2908 51.656 35.6592 51.4038 35.115 51.6373C34.5709 51.8709 34.3186 52.5024 34.5522 53.0466L36.1001 56.6531C35.5778 56.8865 35.0653 57.1065 34.5544 57.3238C34.1857 57.4459 33.8086 57.5669 33.4175 57.6846L31.633 53.5269C31.3994 52.9828 30.7679 52.7305 30.2237 52.9641C29.6795 53.1977 29.4273 53.8292 29.6609 54.3734L31.2583 58.0952C30.4185 58.1758 29.5797 58.1764 28.7569 58.0508L27.0861 54.1581C26.8525 53.6139 26.221 53.3617 25.6768 53.5953C25.1326 53.8288 24.8804 54.4604 25.114 55.0045L26.0639 57.2178C25.2091 56.7879 24.6038 56.2581 24.2818 55.6266ZM11.2482 65.0832C13.4329 65.0453 16.0461 64.8272 19.0363 64.3136L22.4829 72.3439C19.9248 72.8342 17.3326 73.171 14.7518 73.2463L11.2482 65.0832ZM66.1964 43.2243C66.197 43.2557 66.2056 44.5842 65.2531 46.7468L64.0394 43.919C63.8058 43.3748 63.1726 43.1219 62.6284 43.3555C62.0842 43.589 61.8313 44.2223 62.0648 44.7665L63.9482 49.1546C63.1541 50.3976 62.076 51.789 60.6171 53.2926L59.3076 50.2416C59.074 49.6974 58.4407 49.4445 57.8966 49.678C57.3524 49.9116 57.0994 50.5449 57.333 51.0891L58.9641 54.8894C57.8754 55.8761 56.612 56.9 55.1704 57.9495L53.3066 53.6071C53.073 53.063 52.4398 52.81 51.8956 53.0436C51.3514 53.2772 51.0985 53.9105 51.332 54.4546L53.368 59.1983C52.992 59.4503 52.6449 59.6991 52.2465 59.9536C52.2019 59.9833 51.1314 60.6857 49.3473 61.7294L48.2151 59.0918C47.9816 58.5476 47.3483 58.2947 46.8041 58.5282C46.2599 58.7618 46.0082 59.3946 46.2418 59.9387L47.4695 62.7991C46.2638 63.4692 44.8632 64.2119 43.299 64.9916L41.7136 61.2978C41.48 60.7536 40.848 60.5001 40.3038 60.7337C39.7596 60.9673 39.5079 61.6 39.7415 62.1442L41.3647 65.9261C40.0159 66.5642 38.5909 67.2052 37.0745 67.8364L35.6382 64.4899C35.4046 63.9457 34.7725 63.6923 34.2284 63.9258C33.6842 64.1594 33.4325 64.7922 33.666 65.3363L35.0829 68.6374C33.6544 69.1935 32.1726 69.7208 30.6494 70.2172L28.6459 65.5491C28.4123 65.0049 27.7802 64.7515 27.236 64.985C26.6919 65.2186 26.4402 65.8514 26.6737 66.3955L28.5915 70.8637C27.2909 71.247 25.9684 71.5946 24.6287 71.9025L21.1889 63.888C26.0455 62.8735 31.7714 61.0979 38.3445 58.0159C41.3982 56.5871 44.1423 55.099 46.5997 53.5868C46.6094 53.583 46.62 53.5887 46.6298 53.5845C46.6689 53.5677 46.7046 53.5386 46.7422 53.5165C46.772 53.5068 46.8027 53.5103 46.832 53.4977C46.9954 53.4276 47.1215 53.3146 47.227 53.1859C57.5506 46.6819 62.6015 39.7884 63.7699 35.2393C63.7931 35.1537 63.812 35.0716 63.8309 34.9893C65.0499 37.3774 66.2979 40.5173 66.1964 43.2243Z" fill="black"/>
<path d="M15.8952 67.7909C15.0926 68.1354 14.6718 68.908 14.8728 69.5828C15.0836 70.2898 15.9361 70.7628 16.8842 70.5869C17.9913 70.3817 18.7044 69.4181 18.319 68.5201C17.9563 67.675 16.8192 67.3943 15.8952 67.7909Z" fill="black"/>
<path d="M36.2694 7.76088C35.379 3.62931 33.9986 0.735852 33.9403 0.614751C33.7006 0.116794 33.1237 -0.121739 32.6011 0.061466C32.499 0.0970343 30.0663 0.957731 27.0016 2.78216C24.4724 4.28817 21.0733 6.73335 18.5005 10.1454C17.9287 9.38544 17.2955 8.64472 16.6026 7.92601C15.0552 6.32149 13.2077 4.82282 11.1106 3.47122C7.55295 1.17792 4.5264 0.106068 4.39908 0.061466C3.87679 -0.121739 3.29988 0.116794 3.05995 0.614751C3.00167 0.735852 1.62123 3.62931 0.730838 7.76088C0.206278 10.1959 -0.0381775 12.5592 0.00482857 14.7853C0.059152 17.5995 0.575224 20.2024 1.53805 22.5217C2.50116 24.8413 3.98119 27.046 5.93711 29.0742C7.4842 30.6784 9.33205 32.1774 11.4289 33.529C14.9865 35.8223 18.013 36.8944 18.1404 36.939C18.2566 36.9797 18.3783 37 18.5 37C18.6216 37 18.7433 36.9797 18.8599 36.939C18.9869 36.8944 22.0137 35.8223 25.5713 33.529C27.6682 32.1774 29.5157 30.6784 31.0631 29.0742C33.019 27.046 34.4991 24.8413 35.4619 22.5217C36.425 20.2024 36.9408 17.5995 36.9951 14.7853C37.0384 12.5592 36.7939 10.1959 36.2694 7.76088ZM3.54575 21.6924C1.5969 16.9985 2.08864 11.8018 2.84408 8.26871C3.39269 5.70271 4.15717 3.61406 4.61836 2.48011C7.08583 3.52345 13.8171 6.78021 17.568 12.6021C17.5787 12.6202 17.5903 12.6383 17.6022 12.6558C18.1341 13.4874 18.6049 14.3709 18.994 15.3078C21.6997 21.8256 19.7893 29.3057 18.4813 33.0378L8.82191 9.77133C8.59245 9.21833 7.9567 8.95552 7.40243 9.18474C6.84816 9.41395 6.58475 10.048 6.81449 10.6013L16.4736 33.8672C15.384 33.3441 14.0138 32.6172 12.5632 31.6791C9.52501 29.7139 5.49432 26.386 3.54575 21.6924ZM33.4545 21.6924C31.5059 26.386 27.4752 29.7139 24.4371 31.6791C22.9865 32.6175 21.6168 33.3438 20.5269 33.8669L31.2926 7.93505C31.5223 7.38204 31.2589 6.74774 30.7046 6.51881C30.1501 6.28987 29.5146 6.5524 29.2851 7.1054L22.5343 23.3663C22.6152 20.1099 22.1034 17.1328 21.0014 14.4782C20.6613 13.6593 20.2567 12.8542 19.7896 12.0666C22.1764 8.62694 25.5779 6.15945 28.0719 4.66982C29.8564 3.6039 31.4332 2.87898 32.3816 2.47926C32.8428 3.61293 33.6073 5.70215 34.1561 8.26871C34.9116 11.8018 35.4033 16.9985 33.4545 21.6924Z" fill="black"/>
</svg>
